PathFileType	4	(X/Y/Z)	C:\Users\WrightLab\Desktop\Jo\P1_boxCal29.trc
DataRate	CameraRate	NumFrames	NumMarkers	Units	OrigDataRate	OrigDataStartFrame	OrigNumFrames
100.00	100.00	      22	19	mm	100.00	289	      1153
Frame#	Time	Headset_Front			Headset_Back			Headset_Left			Headset_Right			Left_Shoulder			Right_Shoulder			Sternum			C7			Left Elbow			Right Elbow			Left Wrist			Right Wrist			Left ASIS			Right ASIS			S2			Left Knee			Right Knee			Left Ankle			Right Ankle			
		X1	Y1	Z1	X2	Y2	Z2	X3	Y3	Z3	X4	Y4	Z4	X5	Y5	Z5	X6	Y6	Z6	X7	Y7	Z7	X8	Y8	Z8	X9	Y9	Z9	X10	Y10	Z10	X11	Y11	Z11	X12	Y12	Z12	X13	Y13	Z13	X14	Y14	Z14	X15	Y15	Z15	X16	Y16	Z16	X17	Y17	Z17	X18	Y18	Z18	X19	Y19	Z19	

289	2.880	-706.67737	1302.08313	1940.69678													-331.57663	1305.43420	1887.14551										-232.97603	1039.29846	1911.10120				-214.22673	934.06763	1679.25806	-623.89563	908.46930	1826.47241							-657.90619	479.78140	2007.11548	-354.98483	508.54535	1818.76575				-579.36597	127.66161	2118.50781	
290	2.890	-706.79309	1301.06653	1934.41187													-331.39035	1303.92346	1880.29370										-232.46091	1038.33911	1905.25427				-213.74742	932.64063	1670.63831	-624.64172	908.48865	1816.71252							-658.71472	478.76810	2002.92419	-357.28308	508.26382	1810.30176				-579.52533	127.55247	2118.09302	
291	2.900	-706.48883	1300.17004	1927.66541													-331.41635	1302.93652	1873.37305										-233.13664	1037.51563	1899.00830				-211.63823	933.98651	1666.17834	-625.30219	907.79828	1808.90381							-658.97772	478.05618	1997.90125	-358.88266	507.85623	1801.21582				-579.42297	128.40666	2117.52222	
292	2.910	-706.35040	1299.80371	1920.43689													-330.93631	1301.16968	1867.17944										-232.75334	1035.55225	1891.41565				-210.89973	933.73743	1657.43372	-626.20624	905.64380	1803.78320							-659.26459	477.46365	1992.69275	-360.88333	507.51450	1792.18799				-579.07654	129.21458	2116.51294	
293	2.920	-706.10443	1298.92578	1914.02539													-330.61392	1299.98950	1860.27759										-233.13562	1034.32263	1886.09949				-209.58957	933.31256	1652.50378	-627.43164	904.43433	1798.02380							-659.71716	476.67548	1987.95703	-363.37128	507.30734	1782.41077				-579.43433	130.60913	2116.99634	
294	2.930	-705.69733	1298.25464	1907.57007													-330.33588	1298.45801	1854.75500										-232.90445	1032.02209	1878.05481				-208.37964	933.95392	1645.40710	-628.36121	904.64917	1790.80786							-659.81085	476.12418	1983.69592	-365.62183	506.61816	1772.73376				-579.82666	131.96613	2116.38159	
295	2.940	-705.29285	1298.11621	1900.05127													-329.63434	1297.35461	1847.33154										-233.27972	1030.88745	1872.69080				-207.43480	933.32080	1637.13525	-629.14282	904.03033	1781.69543							-659.89545	476.01636	1977.72742	-367.90979	506.07095	1761.78625				-579.50684	132.73596	2115.04883	
296	2.950	-704.91760	1297.36438	1894.19128													-328.71622	1295.80298	1841.51453										-232.74274	1029.43823	1865.24841				-207.53769	933.78809	1629.80005	-630.03058	904.65472	1771.68188							-660.20367	475.19827	1973.65393	-369.52884	505.08749	1754.17371				-579.51880	134.72758	2115.37354	
297	2.960	-704.23163	1297.30029	1885.22998													-327.85913	1294.81189	1833.30469										-233.64516	1027.59631	1858.35120				-205.90509	932.67255	1621.35815	-631.36035	903.58533	1767.52380							-660.23682	475.42041	1968.25830	-371.63324	503.62476	1743.48962				-579.14862	135.50380	2113.89307	
298	2.970	-703.68884	1297.09204	1880.11865													-327.35043	1293.26184	1828.04309										-232.81831	1026.27466	1851.30188				-204.47311	933.08630	1615.56799	-632.07819	903.53625	1757.06287							-660.57861	475.20749	1963.75256	-373.50781	501.52475	1733.46045				-579.61267	137.68213	2113.39868	
299	2.980	-703.07361	1297.04675	1871.58093													-326.54590	1292.25793	1821.17090										-233.64287	1024.29492	1845.20959				-204.10199	932.69287	1607.58264	-632.78882	904.09442	1748.80591							-660.87476	474.79526	1958.41138	-375.01868	500.20929	1726.38232				-579.41083	138.97318	2112.22217	
300	2.990	-702.37775	1296.66968	1865.23633													-325.49823	1290.91248	1813.61475										-233.39345	1022.17322	1836.38855				-202.52098	932.73669	1599.83789	-633.49268	904.26819	1742.23572							-661.46228	475.04614	1952.67383	-376.42657	498.16101	1719.02356				-579.60333	141.46658	2110.98145	
301	3.000	-701.55408	1296.97412	1857.58472													-324.34244	1289.83447	1806.59021										-233.26842	1021.58643	1831.44324				-201.95572	931.68732	1592.22522	-633.90594	904.13373	1731.36072							-661.96600	475.12598	1946.94287	-377.22556	496.07449	1712.04102				-580.08228	143.25049	2108.74194	
302	3.010	-700.79156	1296.91748	1850.53967													-323.45251	1288.55798	1800.07288										-233.37067	1019.89655	1823.21838				-201.16208	931.04547	1585.23645	-634.53900	905.33295	1722.66394				-488.03488	925.05469	2017.32056	-663.07629	474.97806	1940.52136	-377.51395	493.90970	1703.60522				-581.30353	146.89532	2108.86255	
303	3.020	-699.78448	1297.17310	1842.83984													-322.58771	1287.75952	1793.13416										-233.67668	1018.84680	1815.32532				-200.43610	931.11481	1577.12122	-635.03973	906.26678	1713.83679				-487.46768	923.89069	2007.12402	-664.34235	475.63333	1932.42566	-377.49231	492.62146	1698.53589				-581.66473	149.42407	2106.33252	
304	3.030	-699.24402	1297.27686	1835.62317													-322.03967	1287.30347	1784.28955										-232.85789	1017.76099	1808.59521				-200.34097	930.49738	1568.82507	-635.10199	906.63977	1705.36804				-486.46454	923.58929	1998.21521	-665.45026	475.68283	1925.23279	-376.33871	491.61359	1692.15845				-583.01831	153.06725	2104.35278	
305	3.040	-698.21851	1297.74915	1827.73267													-321.10727	1286.71362	1776.78540										-233.55110	1017.38123	1801.21875				-199.27567	930.35571	1561.68372	-634.89160	907.78510	1694.55249				-485.87659	923.76044	1988.51453	-666.88818	475.52744	1916.63379	-376.08331	491.03360	1684.96533				-583.38910	155.61761	2099.84741	
306	3.050	-697.76862	1298.36853	1820.07251													-320.30347	1286.28882	1769.03662										-232.99420	1015.72534	1791.58069				-199.79564	928.44562	1553.85352	-634.68939	907.83197	1686.03638				-485.22598	922.56287	1978.38977	-669.20850	475.93295	1907.06812	-374.67114	491.15323	1677.18713				-585.02112	161.18135	2098.24780	
307	3.060	-697.15594	1299.10596	1813.61316													-319.49451	1286.25208	1761.46472										-232.81555	1016.46283	1785.73755				-197.65965	928.16718	1546.05701	-634.14551	908.23468	1677.16882				-484.45831	922.80731	1970.38354	-670.82568	475.90112	1895.85156	-374.15369	491.60321	1669.91272				-586.05969	164.62140	2092.76880	
308	3.070	-696.59668	1300.33765	1804.48450													-319.19040	1286.42676	1753.50610										-232.60612	1015.90393	1776.46936				-197.52849	927.94086	1538.31311	-633.68011	909.57800	1667.88733				-484.12152	924.27466	1962.30823	-673.66608	476.15482	1884.77222	-373.53702	492.28281	1662.51733				-587.25720	168.55203	2087.10107	
309	3.080	-696.14331	1301.39307	1797.87683													-318.71591	1286.79700	1744.20886										-233.38988	1016.64862	1769.27515				-197.39482	926.52069	1530.59570	-632.93335	910.35675	1659.79138				-483.34393	924.01221	1953.05066	-676.54022	475.59888	1871.67664	-373.86713	492.34891	1655.35254				-589.83606	173.74153	2082.54126	
310	3.090	-695.98438	1302.46777	1790.56738	-753.01892	922.25159	1530.09314										-318.52530	1287.60779	1735.83984										-232.40848	1017.66302	1760.62598				-196.85359	926.16760	1522.70813	-632.09784	910.98383	1650.66882				-482.34036	923.92230	1944.96399	-679.88226	474.99152	1858.06873	-372.79593	493.78693	1647.20813				-590.97736	178.49338	2074.66382	
